Simulation
nRows=24
nColumns=15
endheader
time  TH_x TH_y TH_z SC_y  SC_z  SC_x  AC_y  AC_z  AC_x  GH_y  GH_z  GH_yy  EL_x  PS_y
8.043  0.000000  0.000000  0.000000  -21.449358099296212  3.760376858268651  -4.328469395119566  54.031837529574894  11.50701454941913  3.761455164159926  31.226002519832626  5.582106854601536  26.410962244250186  17.238386777246372  120.000000
8.09662  0.000000  0.000000  0.000000  -20.885282225090855  3.5044339969445346  -5.464467899029942  53.720588013659444  11.05443765183651  4.004201374653642  27.873172851397293  7.446770012315855  29.270173218688743  16.632928938247574  120.000000
8.15024  0.000000  0.000000  0.000000  -20.283056977227723  3.2252536845772255  -6.635498950782793  53.48166318317101  10.723896460350973  4.3477453546642915  26.597832115829576  9.580516152839476  29.821149145882558  15.882004570600099  120.000000
8.20386  0.000000  0.000000  0.000000  -19.710396770603367  2.9390438259930027  -7.803597691991097  53.36356678730238  10.549087104182986  4.790430759498268  26.410173149617243  12.017699631422866  29.021882654212206  15.04328889975487  120.000000
8.257480000000001  0.000000  0.000000  0.000000  -19.248703713147055  2.669130283193451  -8.925963963667963  53.39589364887378  10.56158677476322  5.3271077701677045  26.727473493365363  14.799724729591883  27.425321229199653  14.194036094810228  120.000000
8.3111  0.000000  0.000000  0.000000  -18.97094268712928  2.4455277795027457  -9.958374272783418  53.593730136596655  10.787635737400961  5.943699467927372  27.199985631781136  17.953190853517583  25.36866372458975  13.40618223378292  120.000000
8.36472  0.000000  0.000000  0.000000  -18.913620093587788  2.296657742937678  -10.855078370972718  53.9671815810402  11.240341735524698  6.61574108710155  27.650440371215147  21.46903819029494  23.049242787855302  12.725685392748504  120.000000
8.41834  0.000000  0.000000  0.000000  -19.0556729724347  2.237811779798296  -11.567288258344433  54.51631860576011  11.913902323072278  7.321784429000177  28.021902618696615  25.28451422060654  20.581281431249803  12.16781756626752  120.000000
8.47196  0.000000  0.000000  0.000000  -19.32875953685064  2.259908927651841  -12.04742585719299  55.21502748558686  12.786133736037542  8.048954437416876  28.30089651740285  29.277776025532013  18.054407656688966  11.722947879123286  120.000000
8.52558  0.000000  0.000000  0.000000  -19.640826133917123  2.34844539651817  -12.256608749097722  56.02126737727056  13.826992678756012  8.781428039882524  28.489858549989375  33.29431614402882  15.53794903620926  11.369990665580968  120.000000
8.5792  0.000000  0.000000  0.000000  -19.907265952346496  2.5080591332103586  -12.170973601018847  56.90377496319998  15.001464964601341  9.4825713416004  28.602912964959675  37.19551475718522  13.069712131182223  11.087997765050934  120.000000
8.63282  0.000000  0.000000  0.000000  -20.088475445326495  2.7467812975611317  -11.774968412575305  57.82775521469203  16.2581968338663  10.113867856910339  28.64397651403217  40.8803907935448  10.674183924994828  10.859937598265798  120.000000
8.686440000000001  0.000000  0.000000  0.000000  -20.195236474736504  3.0634926477370668  -11.055975271874612  58.7437984135434  17.52418848729775  10.659662247711353  28.607634667780143  44.28707563417278  8.372105912478515  10.675163193266132  120.000000
8.74006  0.000000  0.000000  0.000000  -20.267308928853723  3.450166612839575  -10.011661469467242  59.6036300177841  18.713502669935867  11.122770383491714  28.490544166167602  47.39011877639206  6.179964308524777  10.5269656270437  120.000000
8.79368  0.000000  0.000000  0.000000  -20.349580525606054  3.894990543465786  -8.655561505162902  60.37173629916767  19.74155153325561  11.51506680350336  28.296049882581343  50.18534199229809  4.111768359428647  10.413148916951197  120.000000
8.8473  0.000000  0.000000  0.000000  -20.479413897308188  4.384127091246209  -7.020918568602298  61.025867059685766  20.539331490468594  11.852274944013415  28.03121583440856  52.67869344639285  2.178261980821895  10.334003426451039  120.000000
8.90092  0.000000  0.000000  0.000000  -20.679896167503227  4.901627915898739  -5.161461879263422  61.553554811634605  21.06587977417437  12.149886386309433  27.702695206570585  54.8785453576606  0.38562250014808575  10.289908125822201  120.000000
8.95454  0.000000  0.000000  0.000000  -20.955292002385004  5.431177267534003  -3.147693154298264  61.95647518079173  21.31312358333364  12.415935671423828  27.321629000147553  56.794961139087356  -1.2676019758840862  10.280638539974163  120.000000
9.00816  0.000000  0.000000  0.000000  -21.295104505146323  5.955389271962956  -1.0543045110081628  62.2470284597853  21.30098856939117  12.651483914561798  26.90377252033282  58.44170336392815  -2.7850745351975386  10.302495222536203  120.000000
9.06178  0.000000  0.000000  0.000000  -21.68377847662559  6.45980320842166  1.0515295294412705  62.442066756979486  21.07197903465799  12.850431653347545  26.469259903843284  59.838697591565605  -4.163475294935092  10.345594301500972  120.000000
9.115400000000001  0.000000  0.000000  0.000000  -22.107264920629923  6.9309725835070894  3.114231938899662  62.556462299149494  20.681524032785404  13.00563289615893  26.042430816557022  61.01279215911624  -5.3886714700334615  10.393605807757554  120.000000
9.16902  0.000000  0.000000  0.000000  -22.55483163814843  7.357447081082067  5.088182357557473  62.602893343488304  20.188471599077182  13.110125596931834  25.651939731481956  61.99274787137693  -6.440184240810052  10.428606219876078  120.000000
9.22264  0.000000  0.000000  0.000000  -23.01550961812564  7.729059400725705  6.934155121900075  62.59513564964231  19.643355876682847  13.157422906978503  25.32961789145773  62.80291362140223  -7.302097604246273  10.437639689285788  120.000000
9.27626  0.000000  0.000000  0.000000  -23.473999437964785  8.037489315685628  8.618155011564086  62.549921891914295  19.080278934597573  13.139197135634593  25.10710120826928  63.45552066667352  -7.972614200281362  10.41820244070426  120.000000
